<svg id="add_box_black_24dp" xmlns="http://www.w3.org/2000/svg" width="18.763" height="18.763" viewBox="0 0 18.763 18.763">
  <path id="Path_168" data-name="Path 168" d="M0,0H18.763V18.763H0Z" fill="none"/>
  <path id="Path_169" data-name="Path 169" d="M15.509,3H4.564A1.563,1.563,0,0,0,3,4.564V15.509a1.563,1.563,0,0,0,1.564,1.564H15.509a1.568,1.568,0,0,0,1.564-1.564V4.564A1.568,1.568,0,0,0,15.509,3Zm0,12.509H4.564V4.564H15.509ZM9.254,13.945h1.564V10.818h3.127V9.254H10.818V6.127H9.254V9.254H6.127v1.564H9.254Z" transform="translate(-0.655 -0.655)" fill="#707070"/>
</svg>
