<svg xmlns="http://www.w3.org/2000/svg" width="486.7" height="455.057" viewBox="0 0 486.7 455.057"><defs><style>.a{fill:#e6e6e6;}.b{fill:#f0f0f0;}.c,.q{fill:#fff;}.d{fill:#e0e0e0;}.e{fill:#f5f5f5;}.f{fill:#fafafa;}.g{fill:#ff8b7b;}.h{fill:#263238;}.i{fill:#ff5652;}.j{opacity:0.2;}.k,.m,.o,.p{fill:#22b0fc;}.l{fill:#407bff;}.m,.n{opacity:0.4;}.o,.q{opacity:0.3;}.p{opacity:0.6;}</style></defs><g transform="translate(-51.025 -108.96)"><g transform="translate(51.025 108.96)"><g transform="translate(0 20.09)"><g transform="translate(0 0)"><g transform="translate(28.764 212.085)"><g transform="translate(60.186)"><path class="a" d="M213.525,307.263H130.566l-5.036-58.1h82.959Z" transform="translate(-125.53 -249.167)"/><path class="b" d="M216.965,307.263H134.006l-5.036-58.1h82.959Z" transform="translate(-124.672 -249.167)"/><path class="c" d="M142.629,292.3l-2.765-33.145h58.007l2.765,33.145Z" transform="translate(-121.956 -246.677)"/></g><g transform="translate(0 58.096)"><rect class="a" width="9.734" height="108.358" transform="translate(157.099)"/><rect class="b" width="6.76" height="108.358" transform="translate(163.144)"/><rect class="b" width="94.214" height="11.96" transform="translate(169.904 11.96) rotate(180)"/><rect class="a" width="9.734" height="96.398" transform="translate(69.287 11.96)"/><rect class="b" width="6.76" height="96.398" transform="translate(75.333 11.96)"/><rect class="a" width="9.734" height="96.398" transform="translate(0 11.96)"/><rect class="b" width="6.76" height="96.398" transform="translate(6.046 11.96)"/><rect class="a" width="9.734" height="96.398" transform="translate(95.5 11.96)"/><rect class="b" width="6.76" height="96.398" transform="translate(101.546 11.96)"/><rect class="a" width="75.69" height="11.96"/></g></g><g transform="translate(93.921)"><rect class="d" width="292.766" height="162.988"/><rect class="e" width="307.365" height="162.988" transform="translate(1.478)"/><rect class="c" width="152.945" height="297.321" transform="translate(303.821 5.021) rotate(90)"/><path class="e" d="M249.557,236.378,305.691,83.433H213.05L156.916,236.378Z" transform="translate(-122.674 -78.411)"/><path class="e" d="M316.39,236.378,372.524,83.433H302.639L246.5,236.378Z" transform="translate(-100.333 -78.411)"/></g><g transform="translate(225.138 222.875)"><rect class="a" width="24.886" height="155.666" transform="translate(229.457)"/><path class="f" d="M434.243,384.791h6.544V372.8h-13.4Z" transform="translate(-186.444 -229.125)"/><rect class="a" width="24.887" height="155.666"/><rect class="f" width="235.167" height="152.432" transform="translate(19.176)"/><path class="a" d="M479.71,305.762H253.446V262.711H479.71ZM254.7,304.513H478.461V263.96H254.7Z" transform="translate(-229.819 -256.579)"/><path class="a" d="M434.619,282.537H292.413c-6.6,0-12.962-5.327-17.441-14.615l-.432-.9H452.494l-.432.9C447.582,277.21,441.224,282.537,434.619,282.537ZM276.54,268.275c4.227,8.285,9.975,13.012,15.872,13.012H434.619c5.9,0,11.645-4.728,15.873-13.012Z" transform="translate(-224.559 -255.503)"/><path class="f" d="M256.427,384.791h-6.544V372.8h13.4Z" transform="translate(-230.708 -229.125)"/><path class="a" d="M479.71,344.629H253.446V301.577H479.71ZM254.7,343.38H478.461V302.826H254.7Z" transform="translate(-229.819 -246.887)"/><path class="a" d="M434.619,321.4H292.413c-6.6,0-12.962-5.326-17.441-14.615l-.432-.9H452.494l-.432.9C447.582,316.077,441.224,321.4,434.619,321.4ZM276.54,307.141c4.227,8.285,9.975,13.012,15.872,13.012H434.619c5.9,0,11.645-4.728,15.873-13.012Z" transform="translate(-224.559 -245.811)"/><path class="a" d="M479.71,383.5H253.446V340.443H479.71ZM254.7,382.246H478.461V341.692H254.7Z" transform="translate(-229.819 -237.195)"/><path class="a" d="M434.619,360.269H292.413c-6.6,0-12.962-5.326-17.441-14.614l-.432-.9H452.494l-.432.9C447.582,354.943,441.224,360.269,434.619,360.269ZM276.54,346.007c4.227,8.285,9.975,13.012,15.872,13.012H434.619c5.9,0,11.645-4.728,15.873-13.012Z" transform="translate(-224.559 -236.119)"/></g><g transform="translate(0 157.36)"><path class="a" d="M127.089,274.283V277.3h-1.934L123.559,301H100.027l-1.6-23.695H96.5v-3.021Z" transform="translate(-43.82 -188.179)"/><path class="a" d="M129.859,232.659C127.923,218.545,108.875,214.513,84.7,214c-23-.491-30.37-8.631-30.37-8.631s.072,32.957,33.217,44.89C119.024,261.586,131.8,246.8,129.859,232.659Z" transform="translate(-54.334 -205.365)"/><path class="a" d="M105.39,256.112c.4-5.806,9.673-16.474,31.968-11.624,16.121,3.507,22.115-4.85,22.115-4.85s-1.493,23.587-25.74,30.678C110.711,277.051,104.679,266.322,105.39,256.112Z" transform="translate(-41.616 -196.818)"/><path class="a" d="M110.714,295.588a.857.857,0,0,0,.657-.3c1.617-1.91.294-6.484-1.535-12.816-2.349-8.126-5.271-18.238-2.8-25.581a103.166,103.166,0,0,1,4.8-11.336c3.5-7.4,6.522-13.793,4-20.467a.86.86,0,0,0-1.609.607c2.263,5.992-.477,11.788-3.947,19.125a105.961,105.961,0,0,0-4.871,11.52c-2.647,7.854.359,18.252,2.772,26.608,1.424,4.928,2.9,10.021,1.875,11.228a.86.86,0,0,0,.656,1.416Z" transform="translate(-41.854 -200.587)"/></g></g></g><g transform="translate(2.22 426.763)"><ellipse class="e" cx="242.24" cy="14.147" rx="242.24" ry="14.147" transform="translate(0)"/></g><g transform="translate(277.378 80.233)"><g transform="translate(0 0)"><path class="g" d="M336.186,174.28c1.667,2.667,3.043,5.229,4.472,7.886,1.423,2.631,2.711,5.337,3.973,8.066A116.052,116.052,0,0,1,351,207.387c.222.741.392,1.524.577,2.293l.274,1.157.136.577.161.953a16.7,16.7,0,0,1-.39,6.434,36.443,36.443,0,0,1-3.887,9.317,74.362,74.362,0,0,1-11.1,14.584l-5.261-3.983a139.806,139.806,0,0,0,7.043-15.039,31.727,31.727,0,0,0,1.907-7.036,5.558,5.558,0,0,0-.1-2.208l-.495-1.527c-.2-.627-.386-1.251-.635-1.883a138.14,138.14,0,0,0-6.583-15.1c-2.457-4.974-5.181-10.037-7.862-14.764Z" transform="translate(-264.269 -115.899)"/><path class="g" d="M332.381,224.425l-5.737,3.046,6.6,7.721s4.117-2.785,4.3-7.038Z" transform="translate(-263.805 -103.394)"/><path class="g" d="M320.466,231.623l7.067,5.607,7.247-2.646-6.595-7.721Z" transform="translate(-265.345 -102.786)"/><path class="h" d="M301.487,141.852c-.141.695-.623,1.182-1.078,1.089s-.707-.73-.566-1.424.623-1.183,1.078-1.091S301.628,141.157,301.487,141.852Z" transform="translate(-270.498 -124.344)"/><path class="i" d="M301.607,142.522a25.366,25.366,0,0,1-4.526,5.266c1,1.4,3.192,1.3,3.192,1.3Z" transform="translate(-271.177 -123.819)"/><path class="g" d="M298.9,163.772l.054-8.188,10.845,1.311s-.186,7.041-6.242,9.112Z" transform="translate(-270.723 -120.562)"/><path class="g" d="M302.007,150.864l7.636,2.194.146,5.014-10.845-1.311Z" transform="translate(-270.712 -121.739)"/><path class="j" d="M309.33,153.059l-7.634-2.2-1.487,2.849a12.161,12.161,0,0,0,7.047,10.595,11.945,11.945,0,0,0,2.211-6.234Z" transform="translate(-270.397 -121.74)"/><path class="h" d="M304.529,139.311a.411.411,0,0,0,.282-.111.415.415,0,0,0,.024-.587,4.131,4.131,0,0,0-3.542-1.378.416.416,0,0,0,.137.821h0a3.3,3.3,0,0,1,2.792,1.122A.416.416,0,0,0,304.529,139.311Z" transform="translate(-270.213 -125.145)"/><path class="g" d="M320.446,151.683c-1.261,6.429-2.022,15.336,2.476,19.626,0,0-1.758,6.522-13.7,6.522-13.136,0-6.319-5.723-6.319-5.723,5.46-1.7,5.412-7.915,4.164-12.91Z" transform="translate(-270.167 -121.534)"/><path class="k" d="M325.3,172.622c1.169-1.657,1.122-6.89-.126-7.814-2.017-1.492-10.641-1.834-22.259.838,1.251,5.07-1.428,7.727-1.428,7.727Z" transform="translate(-270.079 -118.548)"/><path class="l" d="M352.284,408.608a2.83,2.83,0,0,1-2.188-.12.85.85,0,0,1-.2-.967.964.964,0,0,1,.536-.612c1.187-.566,3.913.545,4.029.592a.211.211,0,0,1,.129.186.207.207,0,0,1-.117.194A11.056,11.056,0,0,1,352.284,408.608Zm-1.429-1.4a1.124,1.124,0,0,0-.245.081.557.557,0,0,0-.316.355c-.111.375.028.492.074.531.472.4,2.226.031,3.463-.464A6.863,6.863,0,0,0,350.854,407.2Z" transform="translate(-258.021 -57.928)"/><path class="l" d="M354.156,408.374a.2.2,0,0,1-.1,0c-.993-.29-3.12-1.8-3.146-2.8a.68.68,0,0,1,.533-.673,1.134,1.134,0,0,1,.922.074c1.174.6,1.917,3.033,1.948,3.136a.211.211,0,0,1-.051.207A.215.215,0,0,1,354.156,408.374Zm-2.486-3.106a.822.822,0,0,0-.091.025c-.257.09-.254.216-.252.27.015.59,1.417,1.774,2.446,2.254a5.023,5.023,0,0,0-1.6-2.472A.74.74,0,0,0,351.67,405.268Z" transform="translate(-257.754 -58.405)"/><path class="l" d="M300.406,409.839c-1.127,0-2.216-.155-2.581-.662a.787.787,0,0,1,.018-.91,1.035,1.035,0,0,1,.66-.486c1.462-.4,4.533,1.352,4.664,1.427a.209.209,0,0,1-.064.385A15.484,15.484,0,0,1,300.406,409.839Zm-1.393-1.7a1.553,1.553,0,0,0-.4.047.629.629,0,0,0-.407.291c-.147.259-.094.387-.041.461.41.567,2.63.581,4.264.35A9.4,9.4,0,0,0,299.013,408.135Z" transform="translate(-271.025 -57.685)"/><path class="l" d="M302.607,410.017a.205.205,0,0,1-.085-.019c-1.061-.476-3.162-2.376-3-3.37.037-.234.2-.523.775-.582a1.518,1.518,0,0,1,1.154.357c1.118.918,1.354,3.285,1.364,3.386a.207.207,0,0,1-.085.189A.215.215,0,0,1,302.607,410.017Zm-2.144-3.563a1.062,1.062,0,0,0-.125.008c-.375.037-.4.185-.406.234-.1.6,1.332,2.09,2.414,2.74a4.88,4.88,0,0,0-1.161-2.71A1.107,1.107,0,0,0,300.463,406.454Z" transform="translate(-270.571 -58.105)"/><path class="g" d="M311.652,413.118h-8.788l-.875-20.351h8.788Z" transform="translate(-269.953 -61.414)"/><path class="g" d="M364.785,409.583l-8.589,1.86-8.623-18.955,8.589-1.86Z" transform="translate(-258.586 -61.948)"/><path class="h" d="M356.3,407.018l9.649-2.089a.766.766,0,0,1,.858.429l3.35,7.266a1.293,1.293,0,0,1-.927,1.8c-3.381.671-5.06.828-9.3,1.747-2.61.565-8.5,2-12.109,2.781-3.526.763-4.848-2.682-3.441-3.325,6.3-2.88,8.938-5.416,10.643-7.78A2.137,2.137,0,0,1,356.3,407.018Z" transform="translate(-259.52 -58.386)"/><path class="h" d="M306.972,408.242h9.6a.766.766,0,0,1,.747.6l1.737,7.811a1.278,1.278,0,0,1-1.264,1.563c-3.462-.059-8.465-.261-12.815-.261-5.089,0-9.483.277-15.449.277-3.607,0-4.609-3.647-3.1-3.978,6.874-1.5,12.488-1.664,18.428-5.327A4.063,4.063,0,0,1,306.972,408.242Z" transform="translate(-274.003 -57.555)"/><g transform="translate(57.379 51.525)"><path class="k" d="M333.385,169.029c8.236,1.889,15.026,22.915,15.026,22.915L331.872,204.55A36.089,36.089,0,0,1,323.1,188.31C320.269,177.289,324.963,167.1,333.385,169.029Z" transform="translate(-322.274 -168.793)"/><path class="m" d="M333.385,169.029c8.236,1.889,15.026,22.915,15.026,22.915L331.872,204.55A36.089,36.089,0,0,1,323.1,188.31C320.269,177.289,324.963,167.1,333.385,169.029Z" transform="translate(-322.274 -168.793)"/></g><path class="g" d="M301.528,196.539c-2.056,2.218-4.105,4.19-6.228,6.222q-1.58,1.512-3.231,2.969l-1.659,1.453-.419.361c-.2.174-.448.38-.712.582a10.487,10.487,0,0,1-2.414,1.424,7.945,7.945,0,0,1-3.038.628,7.372,7.372,0,0,1-2.624-.466,7.293,7.293,0,0,1-2.5-1.589,7.545,7.545,0,0,1-1.959-3.235,9.036,9.036,0,0,1-.356-1.858,12.031,12.031,0,0,1,.025-2.234c.059-.6.14-1.118.232-1.608a31.44,31.44,0,0,1,1.451-5.036,46.852,46.852,0,0,1,1.942-4.516c.792-1.59,1.559-2.745,2.321-4.077a101.974,101.974,0,0,1,10.56-14.314A96.421,96.421,0,0,1,305.727,159.1l4.6,4.733c-3.23,4.32-6.406,8.953-9.342,13.519a147.03,147.03,0,0,0-7.993,14.05c-.54,1.177-1.2,2.466-1.579,3.451a34.572,34.572,0,0,0-1.172,3.37,23.9,23.9,0,0,0-.71,3.156,4.552,4.552,0,0,0-.041.494c0,.1.022.15.01-.115a3.55,3.55,0,0,0-.161-.818,5.416,5.416,0,0,0-1.442-2.323,5.984,5.984,0,0,0-4.162-1.688,5.272,5.272,0,0,0-2.015.385,5.144,5.144,0,0,0-.618.309l.48-.437,1.5-1.376,2.987-2.8c1.978-1.863,3.966-3.849,5.845-5.692Z" transform="translate(-276.347 -119.684)"/><path class="j" d="M326.248,181.358c4.474,4.427,5.933,12.489,6.279,19.5l-.73.562a36.118,36.118,0,0,1-8.779-16.244c-.167-.658-.311-1.317-.431-1.963Z" transform="translate(-264.816 -114.134)"/><g transform="translate(14.943 49.482)"><path class="l" d="M289.807,178.249c-1.8,9.494-2.92,28.989,2.3,67.6h47c.324-7.215-4.209-42.413,2.75-76.409a122.612,122.612,0,0,0-15.735-1.986,172.663,172.663,0,0,0-19.981,0c-2.2.2-4.367.52-6.294.861A12.438,12.438,0,0,0,289.807,178.249Z" transform="translate(-288.307 -167.157)"/><path class="n" d="M289.807,178.249c-1.8,9.494-2.92,28.989,2.3,67.6h47c.324-7.215-4.209-42.413,2.75-76.409a122.612,122.612,0,0,0-15.735-1.986,172.663,172.663,0,0,0-19.981,0c-2.2.2-4.367.52-6.294.861A12.438,12.438,0,0,0,289.807,178.249Z" transform="translate(-288.307 -167.157)"/></g><path class="j" d="M297,187.672l-8.493-2.034c-.262,5.144-.286,11.52.1,19.4C292.514,200.591,297.5,193.653,297,187.672Z" transform="translate(-273.364 -113.067)"/><g transform="translate(32.039 328.685)"><path class="j" d="M301.991,392.772l.45,10.49h8.792l-.45-10.49Z" transform="translate(-301.991 -390.098)"/><path class="j" d="M356.166,390.632l-8.592,1.86,4.449,9.77,8.592-1.86Z" transform="translate(-290.624 -390.632)"/></g><path class="g" d="M325.168,147.172c-2.258,8.425-3.151,13.47-8.35,16.973-7.82,5.269-17.556-.778-17.86-9.708-.275-8.036,3.463-20.462,12.5-22.16A11.9,11.9,0,0,1,325.168,147.172Z" transform="translate(-270.712 -126.429)"/><path class="h" d="M304.408,147.039c-.416-1.131-2.364-9.836-.536-12.1s22.627-.635,25.7,2.393c5.1,5.021,1.563,9.5-4.024,15.285-4.2,4.347-4.363,9.248-6.482,9.968-3.713,1.261-9.47.076-10.626-3.888S304.408,147.039,304.408,147.039Z" transform="translate(-269.675 -125.972)"/><path class="h" d="M327.982,129.014c-7.353-3.13-21.137.332-28.579-1.462-.266,3.854,2.06,10.035,9.5,11.7,0,0,10.566,2.06,18.741,1.728S334.226,131.672,327.982,129.014Z" transform="translate(-270.603 -127.552)"/><path class="h" d="M323.194,137.159s4.546.512,7.775-1.492C332.348,138.989,324.791,139.9,323.194,137.159Z" transform="translate(-264.665 -125.528)"/><path class="g" d="M308.71,145.421a9.858,9.858,0,0,1-2.469,5.828c-1.915,2.111-3.916.8-4.254-1.774-.306-2.314.322-6.2,2.665-7.364C306.96,140.964,308.865,142.813,308.71,145.421Z" transform="translate(-269.971 -124.008)"/><path class="k" d="M304.69,230.14s9.974,67.159,15.449,92.318c6,27.552,38.145,118.708,38.145,118.708l15.731-3.406s-22.48-74.285-27.512-112.8c-3.864-29.588-11.482-94.816-11.482-94.816Z" transform="translate(-269.279 -101.969)"/><path class="k" d="M344.571,395.534c-.067.014,2.932,5.688,2.932,5.688l17.7-3.832-1.492-5.321Z" transform="translate(-259.334 -61.588)"/><path class="o" d="M310.253,249.31c11.532,2.261,10.312,45.265,8.924,67.384-3.326-15.635-8.195-45.72-11.519-67.073A3.942,3.942,0,0,1,310.253,249.31Z" transform="translate(-268.539 -97.211)"/><path class="k" d="M291.469,230.14s-1.211,65.7-.255,92.5c.995,27.874,10.731,119.143,10.731,119.143h14.886s.547-89.64,1.209-117.016c.722-29.844,4.325-94.63,4.325-94.63Z" transform="translate(-272.731 -101.969)"/><path class="k" d="M297.438,394.8c-.069,0,.84,6.181.84,6.181h18.11l.49-5.516Z" transform="translate(-271.089 -60.908)"/><g transform="translate(3.604 50.7)"><path class="k" d="M310.491,180.888c4.213,11.356-20.542,24.731-20.542,24.731l-10.717-13.778s7.149-14.232,15.923-20.646C305.995,163.271,307.283,172.244,310.491,180.888Z" transform="translate(-279.232 -168.133)"/><path class="m" d="M310.491,180.888c4.213,11.356-20.542,24.731-20.542,24.731l-10.717-13.778s7.149-14.232,15.923-20.646C305.995,163.271,307.283,172.244,310.491,180.888Z" transform="translate(-279.232 -168.133)"/></g></g></g><g transform="translate(342.861 0)"><ellipse class="k" cx="45.086" cy="28.736" rx="45.086" ry="28.736" transform="translate(21.274)"/><path class="c" d="M371.357,102.972a12.635,12.635,0,0,1-12.4-10.486,12.767,12.767,0,0,1,9.631-14.449h0a12.566,12.566,0,0,1,13.522,5.642l28.944-5.973a4.53,4.53,0,0,1,5.3,3.12A4.359,4.359,0,0,1,413.02,86.2l-.76.157a.758.758,0,0,0-.522.385.767.767,0,0,0-.044.648l.51,1.327a1.981,1.981,0,0,1-.77,2.4,2.435,2.435,0,0,0-1.122,1.767,1.933,1.933,0,0,1-1.5,1.734l-.595.122a1.941,1.941,0,0,1-2.068-.995,2.43,2.43,0,0,0-4.51.931,1.938,1.938,0,0,1-1.505,1.732l-.583.12a1.941,1.941,0,0,1-2.066-.995,2.442,2.442,0,0,0-1.739-1.177,1.982,1.982,0,0,1-1.66-1.9l-.057-1.421a.753.753,0,0,0-.295-.577.761.761,0,0,0-.633-.149l-9.223,1.9a12.594,12.594,0,0,1-9.934,10.486A12.768,12.768,0,0,1,371.357,102.972Zm-2.5-23.717a11.5,11.5,0,0,0-8.676,13.018,11.371,11.371,0,0,0,22.5-.646l.051-.45,10.1-2.085a2.022,2.022,0,0,1,2.43,1.9l.057,1.421a.741.741,0,0,0,.595.716,3.66,3.66,0,0,1,2.636,1.785.711.711,0,0,0,.735.4l.583-.12a.713.713,0,0,0,.517-.657,3.68,3.68,0,0,1,6.832-1.409.7.7,0,0,0,.733.4l.6-.122a.7.7,0,0,0,.514-.653,3.645,3.645,0,0,1,1.7-2.684.739.739,0,0,0,.262-.892l-.51-1.328a2.022,2.022,0,0,1,1.481-2.706l.76-.157a3.108,3.108,0,0,0,2.38-3.839,3.265,3.265,0,0,0-3.846-2.21l-29.821,6.154-.224-.394a11.314,11.314,0,0,0-12.4-5.436Zm2.513,19.1a8.02,8.02,0,1,1,1.632-.166h0A8.136,8.136,0,0,1,371.373,98.353Zm.037-14.759a6.9,6.9,0,0,0-1.388.144,6.752,6.752,0,0,0,2.731,13.225h0a6.754,6.754,0,0,0-1.343-13.368Z" transform="translate(-321.275 -59.773)"/><ellipse class="p" cx="14.819" cy="9.445" rx="14.819" ry="9.445" transform="translate(14.836 55.429)"/><ellipse class="o" cx="6.083" cy="3.877" rx="6.083" ry="3.877" transform="translate(0 70.441)"/></g><g transform="translate(57.288 77.787)"><g transform="translate(0 0)"><path class="k" d="M287.31,418H109.9l-9.711-285.316H277.6Z" transform="translate(-100.188 -123.827)"/><g transform="translate(8.854)"><path class="k" d="M294.4,410.91H116.985l-9.711-285.316H284.685Z" transform="translate(-107.274 -125.594)"/><path class="q" d="M294.4,410.91H116.985l-9.711-285.316H284.685Z" transform="translate(-107.274 -125.594)"/></g><g transform="translate(29.752 11.26)"><ellipse class="k" cx="49.062" cy="50.761" rx="49.062" ry="50.761" transform="matrix(0.701, -0.713, 0.713, 0.701, 0, 69.971)"/><path class="c" d="M229.916,199.31a39.975,39.975,0,0,1-4.31,19.619A39.483,39.483,0,0,1,190.131,240.5a42.841,42.841,0,0,1-36.944-21.568,41.949,41.949,0,0,1-5.645-19.619,39.537,39.537,0,0,1,39.785-41.187A42.921,42.921,0,0,1,229.916,199.31Z" transform="translate(-118.136 -128.742)"/><path class="p" d="M224.474,208.982A39.483,39.483,0,0,1,189,230.55a42.841,42.841,0,0,1-36.944-21.568,63.163,63.163,0,0,1,35.837-10.971A66.75,66.75,0,0,1,224.474,208.982Z" transform="translate(-117.005 -118.795)"/><ellipse class="p" cx="18.037" cy="18.661" rx="18.037" ry="18.661" transform="matrix(0.701, -0.713, 0.713, 0.701, 44.161, 56.255)"/></g><path class="c" d="M251.267,275.75H138.092l-.765-22.489H250.5Z" transform="translate(-90.926 -93.758)"/><path class="c" d="M252.362,307.923H139.188l-.766-22.489H251.6Z" transform="translate(-90.653 -85.734)"/><path class="k" d="M200.437,287.912l-27.271,3.708a1.9,1.9,0,0,0-1.645,2.258l3.581,18.276a2.19,2.19,0,0,0,2.423,1.705l27.271-3.709a1.9,1.9,0,0,0,1.645-2.258l-3.581-18.276A2.194,2.194,0,0,0,200.437,287.912ZM192.6,306.426l-4.938.672-.5-5.9a3.476,3.476,0,0,1-2.026-2.493,3.1,3.1,0,0,1,2.69-3.692,3.574,3.574,0,0,1,3.953,2.789,3.04,3.04,0,0,1-.97,2.9Z" transform="translate(-82.408 -85.121)"/><path class="k" d="M197.522,290.135h0a1.939,1.939,0,0,1-2.149-1.513l-.351-1.789a10.282,10.282,0,0,0-10.768-8.2,8.8,8.8,0,0,0-8.081,10.487l.4,2.054a1.683,1.683,0,0,1-1.461,2h0a1.937,1.937,0,0,1-2.149-1.512l-.341-1.744a12.305,12.305,0,0,1,9.963-14.674,13.985,13.985,0,0,1,15.991,10.826l.4,2.054A1.685,1.685,0,0,1,197.522,290.135Z" transform="translate(-82.184 -88.324)"/><path class="k" d="M229.47,331.561H155.8l-.5-14.638h73.667Z" transform="translate(-86.443 -77.882)"/><path class="h" d="M187.861,263.082a3.949,3.949,0,0,1-3.973,4.113,4.288,4.288,0,0,1-4.254-4.113,3.95,3.95,0,0,1,3.974-4.113A4.287,4.287,0,0,1,187.861,263.082Z" transform="translate(-80.376 -92.334)"/><path class="h" d="M173.688,263.082a3.949,3.949,0,0,1-3.973,4.113,4.287,4.287,0,0,1-4.254-4.113,3.949,3.949,0,0,1,3.973-4.113A4.287,4.287,0,0,1,173.688,263.082Z" transform="translate(-83.911 -92.334)"/><path class="h" d="M159.515,263.082a3.949,3.949,0,0,1-3.974,4.113,4.287,4.287,0,0,1-4.253-4.113,3.949,3.949,0,0,1,3.973-4.113A4.287,4.287,0,0,1,159.515,263.082Z" transform="translate(-87.445 -92.334)"/><path class="h" d="M202.033,263.082a3.949,3.949,0,0,1-3.973,4.113,4.286,4.286,0,0,1-4.253-4.113,3.949,3.949,0,0,1,3.973-4.113A4.287,4.287,0,0,1,202.033,263.082Z" transform="translate(-76.842 -92.334)"/><path class="h" d="M216.208,263.082a3.95,3.95,0,0,1-3.974,4.113,4.287,4.287,0,0,1-4.253-4.113,3.949,3.949,0,0,1,3.973-4.113A4.288,4.288,0,0,1,216.208,263.082Z" transform="translate(-73.307 -92.334)"/></g></g></g></g></svg>