<svg xmlns="http://www.w3.org/2000/svg" width="25.059" height="25.059" viewBox="0 0 25.059 25.059"><defs><style>.a{fill:none;}.b{fill:#fff;}.c{fill:#fca829;}</style></defs><g transform="translate(-1303 -31)"><g transform="translate(1303 31)"><path class="a" d="M0,0H25.059V25.059H0Z"/><path class="b" d="M12.353,22.861a2.094,2.094,0,0,0,2.088-2.088H10.265A2.094,2.094,0,0,0,12.353,22.861ZM18.618,16.6V11.375c0-3.206-1.7-5.889-4.7-6.6v-.71a1.566,1.566,0,1,0-3.132,0v.71c-2.986.71-4.7,3.383-4.7,6.6V16.6L4,18.684v1.044H20.706V18.684ZM16.53,17.64H8.177V11.375c0-2.589,1.577-4.7,4.177-4.7s4.177,2.109,4.177,4.7Z" transform="translate(0.177 0.11)"/></g><ellipse class="c" cx="4.5" cy="5" rx="4.5" ry="5" transform="translate(1316 34)"/></g></svg>