<svg xmlns="http://www.w3.org/2000/svg" width="160.059" height="26" viewBox="0 0 160.059 26"><defs><style>.a{fill:none;}.b,.d{fill:#606060;}.c{fill:#fca829;}.d{opacity:0;}</style></defs><g transform="translate(-987 -27)"><g transform="translate(-181 -4)"><g transform="translate(1303 31)"><path class="a" d="M0,0H25.059V25.059H0Z"/><path class="b" d="M12.353,22.861a2.094,2.094,0,0,0,2.088-2.088H10.265A2.094,2.094,0,0,0,12.353,22.861ZM18.618,16.6V11.375c0-3.206-1.7-5.889-4.7-6.6v-.71a1.566,1.566,0,1,0-3.132,0v.71c-2.986.71-4.7,3.383-4.7,6.6V16.6L4,18.684v1.044H20.706V18.684ZM16.53,17.64H8.177V11.375c0-2.589,1.577-4.7,4.177-4.7s4.177,2.109,4.177,4.7Z" transform="translate(0.177 0.11)"/></g><ellipse class="c" cx="4.5" cy="5" rx="4.5" ry="5" transform="translate(1316 34)"/></g><g transform="translate(987 28)"><path class="a" d="M0,0H24V24H0Z"/><path class="b" d="M22,10V6a2,2,0,0,0-2-2H4A1.991,1.991,0,0,0,2.01,6v4A2,2,0,0,1,2,14v4a2.006,2.006,0,0,0,2,2H20a2.006,2.006,0,0,0,2-2V14a2,2,0,0,1,0-4ZM20,8.54a3.993,3.993,0,0,0,0,6.92V18H4V15.46A4.013,4.013,0,0,0,6,12,3.992,3.992,0,0,0,4.01,8.54L4,6H20ZM11,15h2v2H11Zm0-4h2v2H11Zm0-4h2V9H11Z"/></g><g transform="translate(1077 29)"><path class="a" d="M0,0H24V24H0Z"/><path class="b" d="M4,4H20V16H5.17L4,17.17V4M4,2A2,2,0,0,0,2.01,4L2,22l4-4H20a2.006,2.006,0,0,0,2-2V4a2.006,2.006,0,0,0-2-2ZM6,12h8v2H6ZM6,9H18v2H6ZM6,6H18V8H6Z"/></g><g transform="translate(1032 28)"><rect class="d" width="24" height="24"/><path class="b" d="M19,3H7A3,3,0,0,0,4,6V18a3,3,0,0,0,3,3H19a1,1,0,0,0,1-1V4A1,1,0,0,0,19,3ZM7,5H18V15H7a3,3,0,0,0-1,.18V6A1,1,0,0,1,7,5ZM7,19a1,1,0,0,1,0-2H18v2Z"/></g></g></svg>