<svg xmlns="http://www.w3.org/2000/svg" width="20" height="20" viewBox="0 0 20 20"><defs><style>.a{fill:none;}.b{fill:#606060;}</style></defs><path class="a" d="M0,0H20V20H0Z"/><path class="b" d="M9.5,15.333h1.667V13.667H9.5ZM10.333,2a8.333,8.333,0,1,0,8.333,8.333A8.336,8.336,0,0,0,10.333,2Zm0,15A6.667,6.667,0,1,1,17,10.333,6.676,6.676,0,0,1,10.333,17Zm0-11.667A3.332,3.332,0,0,0,7,8.667H8.667a1.667,1.667,0,0,1,3.333,0c0,1.667-2.5,1.458-2.5,4.167h1.667c0-1.875,2.5-2.083,2.5-4.167A3.332,3.332,0,0,0,10.333,5.333Z" transform="translate(-0.333 -0.333)"/></svg>