<svg xmlns="http://www.w3.org/2000/svg" width="22" height="22" viewBox="0 0 22 22"><defs><style>.a,.b{fill:#fff;}.a{opacity:0;}</style></defs><g transform="translate(0.333)"><rect class="a" width="22" height="22" transform="translate(-0.333)"/><path class="b" d="M17.75,20H4.917a.917.917,0,1,0,0,1.833H17.75a.917.917,0,0,0,0-1.833Z" transform="translate(-0.333 -1.667)"/><path class="b" d="M4.916,16.671H5l3.823-.348A1.833,1.833,0,0,0,9.93,15.8l8.25-8.25a1.76,1.76,0,0,0-.064-2.484L15.6,2.555a1.833,1.833,0,0,0-2.438-.064l-8.25,8.25a1.833,1.833,0,0,0-.522,1.109L4,15.672a.914.914,0,0,0,.917,1ZM14.33,3.838l2.5,2.5L15,8.128,12.543,5.671ZM6.172,12.006l5.161-5.124,2.475,2.475L8.675,14.49l-2.75.257Z" transform="translate(-0.333 -0.171)"/></g></svg>