<svg xmlns="http://www.w3.org/2000/svg" width="22" height="22" viewBox="0 0 22 22"><defs><style>.a,.b{fill:#8f9bb3;}.a{opacity:0;}</style></defs><rect class="a" width="22" height="22"/><path class="b" d="M20.214,10.958C19.627,9.94,16.4,4.835,10.919,5c-5.069.128-8,4.583-8.8,5.958a.917.917,0,0,0,0,.917c.578,1,3.667,5.958,9.066,5.958h.229c5.069-.128,8.012-4.583,8.8-5.958A.917.917,0,0,0,20.214,10.958ZM11.368,16c-3.951.092-6.527-3.291-7.333-4.583.917-1.476,3.309-4.492,6.976-4.583,3.932-.1,6.518,3.291,7.333,4.583C17.4,12.892,15.035,15.908,11.368,16Z" transform="translate(-0.166 -0.416)"/><path class="b" d="M11.708,8.5a3.208,3.208,0,1,0,3.208,3.208A3.208,3.208,0,0,0,11.708,8.5Zm0,4.583a1.375,1.375,0,1,1,1.375-1.375A1.375,1.375,0,0,1,11.708,13.083Z" transform="translate(-0.708 -0.708)"/></svg>