<svg xmlns="http://www.w3.org/2000/svg" width="21.504" height="21.504" viewBox="0 0 21.504 21.504"><defs><style>.a{fill:none;}.b{fill:#b5b5b5;}</style></defs><path class="a" d="M0,0H21.5V21.5H0Z"/><path class="b" d="M10.856,5.792a8.754,8.754,0,0,1,7.9,4.928,8.8,8.8,0,0,1-15.806,0,8.754,8.754,0,0,1,7.9-4.928m0-1.792A10.6,10.6,0,0,0,1,10.72a10.588,10.588,0,0,0,19.712,0A10.6,10.6,0,0,0,10.856,4Zm0,4.48a2.24,2.24,0,1,1-2.24,2.24,2.241,2.241,0,0,1,2.24-2.24m0-1.792a4.032,4.032,0,1,0,4.032,4.032A4.038,4.038,0,0,0,10.856,6.688Z" transform="translate(-0.104 -0.416)"/></svg>