<svg xmlns="http://www.w3.org/2000/svg" width="16" height="16" viewBox="0 0 16 16">
    <g fill="none" fill-rule="evenodd">
        <g fill="#343741">
            <g>
                <path d="M3.146 3.146c.196-.195.512-.195.708 0L8 7.293l4.146-4.147c.196-.195.512-.195.708 0 .195.196.195.512 0 .708L8.707 8l4.147 4.146c.173.174.192.443.057.638l-.057.07c-.196.195-.512.195-.708 0L8 8.707l-4.146 4.147c-.196.195-.512.195-.708 0-.195-.196-.195-.512 0-.708L7.293 8 3.146 3.854c-.173-.174-.192-.443-.057-.638z"/>
            </g>
        </g>
    </g>
</svg>
